<svg width="320" height="320" viewBox="0 0 1270 1070" fill="none" xmlns="http://www.w3.org/2000/svg">
<path d="M682.817 647.939C681.156 631.25 680.541 614.499 680.975 597.756C680.975 596.365 678.562 595.99 678.372 597.756C676.296 614.538 676.509 631.465 679.007 648.206C679.049 648.632 679.29 649.026 679.677 649.302C680.064 649.578 680.565 649.713 681.07 649.677C681.576 649.642 682.044 649.439 682.371 649.113C682.699 648.787 682.859 648.364 682.817 647.939ZM654.051 641.679C654.166 641.896 654.353 642.08 654.59 642.21C654.827 642.339 655.103 642.408 655.385 642.408C655.667 642.408 655.943 642.339 656.179 642.21C656.416 642.08 656.603 641.896 656.718 641.679C655.829 624.827 655.004 607.921 654.115 591.015C654.115 590.731 653.981 590.459 653.743 590.258C653.505 590.057 653.182 589.945 652.845 589.945C652.508 589.945 652.185 590.057 651.947 590.258C651.709 590.459 651.575 590.731 651.575 591.015C650.728 603.779 650.898 616.576 652.083 629.321C652.125 633.493 652.786 637.645 654.051 641.679ZM820.485 643.819C821.107 652.083 820.011 660.376 817.246 668.322C817.246 669.553 821.501 676.347 824.168 656.82C825.84 643.63 822.576 630.331 814.833 618.781C814.008 617.497 811.849 618.781 812.547 619.905C816.942 627.389 819.634 635.5 820.485 643.819ZM743.523 257.068C743.479 261.094 745.095 265.008 748.095 268.142C751.905 271.031 757.81 259.796 775.527 258.031V243.586C763.166 244.348 751.663 249.194 743.523 257.068ZM910.464 643.498C910.464 632.477 909.321 621.51 909.067 610.489C909.067 608.991 906.337 609.312 906.337 610.81C906.337 622.205 906.337 633.708 906.908 645.157C907.162 652.7 910.655 649.918 910.464 643.498ZM787.401 243.318L787.782 257.763C809.69 258.405 816.04 272.315 818.389 267.982C819.405 266.002 823.533 256.105 821.31 254.393C811.988 247.341 799.929 243.403 787.401 243.318ZM331.662 156.488C328.36 157.986 331.662 164.566 334.265 163.122C336.869 161.677 335.281 154.722 331.662 156.488ZM327.471 140.384C323.026 140.759 322.899 144.611 327.471 145.092C330.783 145.309 333.995 146.15 336.869 147.553C338.583 148.516 340.425 146.59 339.409 145.253C338.101 143.63 336.309 142.327 334.213 141.472C332.118 140.617 329.793 140.242 327.471 140.384ZM316.104 159.216C317.804 162.972 319.141 166.836 320.105 170.772C321.184 175.373 321.121 176.604 320.867 176.871C319.841 176.899 318.821 177.007 317.819 177.192C315.977 177.727 315.977 179.707 318.835 180.83C319.61 181.16 320.485 181.286 321.346 181.19C322.207 181.095 323.013 180.783 323.661 180.295C326.963 177.62 325.566 170.077 319.597 157.879C319.386 157.489 319 157.185 318.524 157.034C318.048 156.884 317.52 156.899 317.057 157.076C316.594 157.254 316.233 157.579 316.054 157.98C315.876 158.381 315.894 158.826 316.104 159.216Z" fill="#27272A"/>
<path d="M1236.47 803.677H1146.37C1154.68 766.227 1105.28 739.852 1074.55 753.655C1071.39 740.678 1062.72 729.119 1050.16 721.149C1037.6 713.18 1022.02 709.348 1006.35 710.373C1004.68 701.18 1000.55 692.427 994.281 684.772C988.011 677.118 979.762 670.762 970.154 666.182C967.169 636.222 968.503 605.727 968.566 576.142C973.964 576.463 986.918 577.479 984.822 573.146C978.472 559.878 967.614 537.729 959.422 524.996C962.724 524.996 966.471 524.996 966.471 522.16C967.487 470.8 969.455 363.051 969.455 363.051C970.471 299.279 973.011 225.984 919.862 173.501C918.211 171.842 915.925 171.254 914.464 172.966C892.842 198.757 878.626 228.426 872.935 259.636C870.776 229.141 867.919 194.687 862.331 160.607C852.806 102.774 829.819 63.9328 792.481 40.8743C788.925 38.6808 783.718 35.1498 781.368 36.5408C723.075 71.3158 705.93 131.985 701.866 176.764C700.406 195.81 699.961 215.124 700.533 234.277C692.722 209.72 665.925 161.784 656.083 173.34C610.236 228.659 614.109 300.135 617.983 363.212C624.333 483.373 626.238 514.349 627.063 522.428C627.063 525.049 627.063 526.815 635.826 526.012C617.348 567.261 613.538 574.162 615.189 575.339C616.84 576.516 623.38 576.142 626.555 575.981C626.111 594.011 631.191 681.644 630.492 686.298C625.882 691.028 622.176 696.335 619.507 702.027C608.682 704.509 598.636 708.962 590.078 715.072C581.52 721.183 574.658 728.802 569.977 737.391C561.529 736.694 553.013 737.875 545.275 740.815C537.655 669.606 522.034 561.964 502.921 490.274C535.623 493.859 551.244 481.5 558.801 470.8C577.851 442.82 565.151 396.328 541.529 370.595C521.535 334.758 492.212 303.177 455.74 278.2C459.614 271.994 449.39 243.8 423.419 232.19C412.306 227.215 397.511 226.84 390.716 221.49C376.175 209.506 385.954 177.62 355.664 169.274C353.705 156.088 350.456 143.061 345.949 130.326C384.049 116.523 382.08 79.1803 359.601 68.5873C338.646 58.7433 327.089 72.7068 313.31 76.6123C294.26 81.9623 278.067 70.4063 253.048 70.4063C205.868 70.4063 194.692 110.424 192.215 112.404C189.739 114.383 188.786 125.672 167.768 132.627C145.416 139.956 116.968 140.384 104.839 162.533C94.5524 181.9 114.301 205.547 100.712 223.47C92.7744 234.17 64.2629 234.812 43.5619 262.792C21.4004 292.592 28.8299 333.038 59.3734 349.837C33.0844 399.592 34.2909 452.503 62.4849 488.134C88.2659 520.609 130.303 532.807 175.959 531.79C173.673 622.419 174.626 712.781 168.911 803.998C148.273 803.998 127.572 804.373 107.316 804.694C106.743 804.694 106.194 804.885 105.789 805.227C105.384 805.568 105.157 806.03 105.157 806.513C105.157 806.995 105.384 807.458 105.789 807.799C106.194 808.14 106.743 808.332 107.316 808.332C125.413 808.653 146.813 808.974 168.53 808.974C165.037 862.099 160.338 915.974 154.56 968.778C153.988 974.128 168.847 973.807 175.134 974.128C173.398 981.559 172.737 989.14 173.165 996.705C168.339 1000.29 161.291 1024.79 161.672 1029.34C161.672 1030.3 162.18 1030.89 162.942 1031C169.927 1031.96 275.464 1036.35 280.353 1031.48C280.476 1031.29 280.54 1031.08 280.54 1030.87C280.54 1030.65 280.476 1030.44 280.353 1030.25C273.305 1014.2 248.603 1000.66 228.41 996.277L233.871 975.787C238.062 975.787 246.571 976.322 247.778 974.449C276.162 920.521 302.007 864.828 324.549 809.027H416.878C434.468 856.596 449.994 904.688 463.424 953.21C468.821 972.791 465.075 971.721 480.061 972.309C479.99 979.938 481.079 987.544 483.299 994.94C478.429 1004.6 475.49 1014.86 474.6 1025.33C474.477 1025.51 474.413 1025.71 474.413 1025.92C474.413 1026.12 474.477 1026.33 474.6 1026.5C478.6 1030.78 592.583 1034.37 600.393 1030.46C606.743 1027.04 571.945 998.631 541.084 993.388C541.529 986.556 541.338 979.705 540.513 972.898C545.91 972.898 558.356 974.128 558.356 969.634C558.356 919.13 556.324 865.042 552.006 809.134H1236.66C1237.52 809.113 1238.34 808.805 1238.93 808.278C1239.51 807.752 1239.83 807.049 1239.81 806.326C1239.78 805.602 1239.42 804.916 1238.79 804.42C1238.17 803.923 1237.33 803.656 1236.47 803.677ZM376.365 708.233C392.177 744.881 400.622 767.672 414.91 804.159H326.454C341.885 765.692 363.221 707.859 377.254 659.227C382.017 643.177 391.605 649.972 388.113 663.026C384.049 679.129 376.175 707.859 376.365 708.233ZM536.576 993.923C525.717 998.096 498.476 997.829 487.871 995.261C487.173 987.61 485.331 979.96 485.204 972.309L535.115 972.791C535.56 979.853 536.068 986.861 536.576 993.923ZM180.976 531.737C234.316 529.49 297.752 508.946 350.838 476.685C351.981 475.99 352.997 475.829 353.315 474.92C353.632 474.01 353.315 473.261 351.41 470.961C366.322 465.079 381.98 460.645 398.082 457.746C404.432 456.783 423.038 453.787 426.403 445.281L440.246 444.96C453.581 468.232 474.79 484.389 498.539 489.418L511.239 553.03C406.337 583.471 310.579 589.945 181.357 575.125C181.801 560.734 181.865 546.128 181.166 531.737H180.976ZM347.409 205.654C338.519 225.075 319.977 225.877 322.962 230.478V232.137C324.168 240.643 326.518 258.138 310.262 270.496C282.83 261.294 265.812 250.701 253.112 235.293C255.779 231.388 253.112 214.321 253.112 214.161C249.175 196.72 231.141 193.189 235.205 177.406C235.776 175.106 236.602 173.768 237.681 173.34C241.237 172.003 250.381 182.328 252.286 170.344C255.271 153.224 260.986 140.01 281.115 135.195C299.784 130.754 317.818 138.351 341.948 131.343C347.409 150.389 356.807 184.843 347.409 205.654ZM311.214 275.204C322.2 272.904 331.598 250.166 329.312 237.433C346.449 239.473 363.327 242.84 379.731 247.491C439.421 265.414 491.237 303.72 526.225 355.722C502.349 336.462 471.107 325.601 442.85 327.099C433.841 314.66 423.489 302.947 411.925 292.11C411.753 291.95 411.542 291.821 411.307 291.733C411.072 291.645 410.817 291.6 410.56 291.6C410.303 291.6 410.048 291.645 409.813 291.733C409.578 291.821 409.367 291.95 409.195 292.11C409.012 292.26 408.867 292.439 408.768 292.636C408.669 292.834 408.618 293.046 408.618 293.261C408.618 293.475 408.669 293.687 408.768 293.885C408.867 294.082 409.012 294.261 409.195 294.411C419.34 305.04 428.693 316.189 437.198 327.795C428.782 328.865 420.669 331.222 413.259 334.75C412.059 334.849 410.87 335.028 409.703 335.285C406.216 335.949 402.668 336.36 399.098 336.515C384.239 336.515 383.668 331.165 378.334 331.754C367.729 332.663 370.841 350.318 395.225 354.063C390.843 364.389 388.875 387.126 397.066 396.863C387.287 396.863 381.001 395.151 380.62 403.551C380.492 405.065 380.492 406.584 380.62 408.098C377.471 406.391 373.908 405.303 370.192 404.914C366.477 404.525 362.705 404.845 359.157 405.851C352.489 407.991 339.789 419.173 333.376 423.827C333.376 421.58 333.376 418.156 331.026 417.942C290.704 415.107 229.426 414.304 192.723 415.16C190.711 393.333 191.051 371.398 193.739 349.623C193.849 349.176 193.743 348.711 193.445 348.329C193.148 347.948 192.682 347.682 192.152 347.59C191.621 347.498 191.069 347.587 190.617 347.837C190.164 348.088 189.848 348.48 189.739 348.927C187.707 358.557 183.77 397.826 187.897 415.321L135.891 418.21C135.507 418.24 135.143 418.368 134.847 418.577C134.551 418.786 134.338 419.065 134.235 419.378C134.131 419.691 134.143 420.023 134.269 420.331C134.395 420.638 134.628 420.906 134.938 421.099C135.117 421.234 135.33 421.333 135.561 421.388C135.792 421.444 136.035 421.455 136.272 421.42C200.383 418.111 264.687 418.469 328.74 422.49C329.035 440.567 335.494 458.191 347.346 473.261C262.637 524.675 123.254 558.273 66.3584 485.406C25.4009 433.35 45.7209 342.4 121.667 286.867C157.942 260.663 202.078 243.376 249.238 236.898C260.732 255.356 302.896 276.809 311.151 275.097L311.214 275.204ZM405.321 340.046C402.086 342.925 399.369 346.187 397.257 349.73C385.382 348.232 378.651 342.989 377.508 338.655C376.619 335.659 378.715 334.429 383.096 336.943C389.989 339.776 397.713 340.855 405.321 340.046ZM436.182 369.525C435.86 369.837 435.67 370.229 435.64 370.642C435.611 371.054 435.744 371.464 436.02 371.805C436.295 372.147 436.697 372.403 437.163 372.533C437.629 372.662 438.132 372.658 438.595 372.521C443.739 370.809 446.152 371.183 446.533 371.986C446.914 372.788 444.882 376.747 440.754 378.459C438.087 379.583 432.944 380.599 429.007 374.554C425.768 369.632 431.293 364.228 429.007 363.105C426.721 361.981 420.244 370.274 425.768 377.55C424.627 378.255 423.262 378.657 421.848 378.704C420.434 378.752 419.035 378.443 417.831 377.817C415.037 375.998 413.132 370.916 416.37 361.767C417.577 358.236 410.465 357.327 409.576 372.467C409.195 374.554 406.464 387.394 405.639 391.727C404.813 396.061 403.67 396.382 403.543 396.435C403.416 396.489 402.845 396.435 402.337 395.847C397.828 391.567 392.431 369.792 401.067 353.047C403.752 347.399 408.338 342.537 414.261 339.058C420.185 335.579 427.186 333.635 434.404 333.466C438.649 333.397 442.851 334.194 446.652 335.788C450.453 337.382 453.74 339.726 456.234 342.621C458.729 345.516 460.356 348.875 460.977 352.414C461.599 355.952 461.196 359.565 459.804 362.944C459.12 364.743 457.958 366.386 456.407 367.749C454.855 369.112 452.955 370.158 450.851 370.809C450.126 369.764 449.119 368.878 447.912 368.223C446.705 367.567 445.331 367.161 443.903 367.036C442.474 366.911 441.031 367.071 439.69 367.503C438.348 367.936 437.147 368.628 436.182 369.525ZM389.446 414.839C388.668 412.995 387.168 411.429 385.192 410.399L385.954 401.732H416.053C416.053 404.621 417.005 413.127 417.005 413.127C407.783 413.161 398.575 413.733 389.446 414.839ZM409.131 396.917C410.808 391.071 412.017 385.137 412.751 379.155C414.815 381.049 417.619 382.254 420.651 382.549C423.683 382.843 426.739 382.208 429.261 380.76L430.277 381.348C427.56 391.792 427.216 402.575 429.261 413.127H422.911C423.084 408.064 422.421 403.004 420.942 398.094C419.101 396.703 411.925 396.917 409.131 396.917ZM360.236 409.864C364.492 408.968 368.954 409.035 373.169 410.059C377.384 411.083 381.203 413.027 384.239 415.695C385.382 417.3 385.192 417.835 385.128 417.996C385.065 418.156 381.318 418.584 378.778 418.477C375.026 417.967 371.178 418.414 367.729 419.761C362.494 423.3 359.064 428.391 358.141 433.992C357.188 447.635 403.988 445.923 419.99 445.495C408.179 455.66 373 453.359 349.187 467.376C340.866 455.283 335.571 441.883 333.63 428C337.821 426.395 353.505 412.325 360.236 409.864ZM558.801 460.742C545.085 494.501 502.095 485.834 500.317 485.459C470.345 479.093 453.01 455.553 446.469 444.639C453.581 443.248 451.549 437.363 450.851 431.692L506.223 430.622C510.668 437.737 521.209 435.383 520.701 428.268C520.766 426.719 520.186 425.201 519.061 423.975C517.937 422.749 516.338 421.894 514.543 421.557C512.748 421.22 510.87 421.424 509.234 422.131C507.599 422.839 506.309 424.007 505.588 425.432C497.65 424.844 458.598 425.753 450.406 426.502C449.454 412.164 450.406 413.181 434.722 413.234C433.261 403.178 433.261 393.009 434.722 382.953C438.049 383.476 441.487 382.996 444.436 381.597C447.385 380.199 449.656 377.97 450.851 375.303C461.392 374.179 471.996 358.771 462.662 342.293C460.914 339.527 458.506 337.096 455.588 335.153C452.67 333.21 449.306 331.798 445.707 331.005C494.158 329.935 538.036 362.837 555.562 401.999C557.023 401.464 556.451 401.999 555.562 401.999C564.584 420.692 565.727 441.426 558.801 460.742ZM228.601 975.68C226.582 982.419 225.097 989.265 224.156 996.17C208.71 997.517 193.151 997.66 177.674 996.598C178.69 989.162 179.642 981.779 180.595 974.342L228.601 975.68ZM1075.06 756.811C1088.9 747.235 1150.11 759.433 1140.97 803.838H551.625L546.101 744.56C578.295 735.144 601.917 749.482 610.236 766.923C611.696 770.186 619.888 767.404 607.124 753.976C599.013 745.531 587.561 739.832 574.866 737.926C605.6 688.064 692.595 696.035 709.486 749.642C710.375 752.478 715.392 751.087 714.503 748.251C709.408 732.442 697.427 718.833 680.949 710.136C664.472 701.44 644.709 698.296 625.603 701.332C630.987 692.212 638.954 684.351 648.801 678.442C658.647 672.533 670.07 668.758 682.059 667.452C694.048 666.146 706.235 667.348 717.542 670.952C728.849 674.556 738.928 680.452 746.888 688.117C752.73 693.467 772.288 724.818 778.638 728.51C773.417 736.052 770.15 744.439 769.049 753.12C761.199 755.543 754.061 759.364 748.121 764.322C742.182 769.28 737.581 775.258 734.632 781.849C734.422 782.254 734.411 782.712 734.601 783.123C734.792 783.535 735.168 783.866 735.648 784.043C736.128 784.22 736.672 784.23 737.16 784.069C737.649 783.909 738.041 783.591 738.252 783.187C742.093 775.689 748.189 769.164 755.937 764.257C763.684 759.349 772.817 756.228 782.434 755.202C792.05 754.176 801.818 755.279 810.773 758.404C819.729 761.529 827.563 766.568 833.502 773.022C833.923 773.518 834.561 773.854 835.275 773.954C835.99 774.054 836.722 773.912 837.312 773.557C837.901 773.202 838.299 772.665 838.418 772.063C838.537 771.461 838.368 770.843 837.947 770.347C830.631 762.186 820.58 756.06 809.091 752.761C797.602 749.461 785.203 749.139 773.494 751.836C775.36 743.317 779.254 735.205 784.939 727.987C790.625 720.769 797.986 714.596 806.578 709.838C816.967 704.227 828.878 700.931 841.193 700.261C853.508 699.591 865.823 701.568 876.983 706.007C888.142 710.446 897.78 717.202 904.992 725.639C912.203 734.076 916.752 743.919 918.211 754.243C918.348 754.776 918.711 755.249 919.232 755.574C919.753 755.898 920.396 756.051 921.041 756.006C921.686 755.96 922.29 755.718 922.739 755.324C923.188 754.931 923.452 754.414 923.481 753.869C921.799 742.092 916.39 730.913 907.822 721.501C899.254 712.089 887.841 704.791 874.777 700.369C879.014 690.949 886.05 682.603 895.211 676.13C904.373 669.657 915.353 665.274 927.101 663.4C964.185 658.585 995.998 682.607 1000.7 710.908C990.982 712.263 981.758 715.456 973.718 720.247C965.678 725.038 959.032 731.302 954.279 738.568C953.136 740.387 956.628 741.992 957.835 740.226C964.769 730.353 975.359 722.671 987.978 718.36C1000.6 714.049 1014.55 713.348 1027.68 716.365C1040.33 719.757 1051.32 726.504 1059.04 735.597C1066.75 744.69 1070.77 755.642 1070.48 766.816C1070.48 768.26 1072.77 770.079 1074.48 769.063C1075.18 768.688 1077.21 767.458 1075.12 756.811H1075.06ZM707.708 179.653C751.269 173.233 796.608 172.11 859.156 176.015C869.189 248.722 870.649 317.202 872.237 390.336C860.045 367.652 847.662 334.536 847.853 311.691C847.793 285.116 840.126 258.946 825.501 235.4C808.102 207.42 784.543 187.625 758.889 210.844C723.329 242.944 725.869 281.678 726.568 324.638C724.212 343.743 719.335 362.566 712.026 380.76C709.804 291.575 703.644 225.877 707.708 179.653ZM962.216 520.662C957.546 520.047 952.79 520.047 948.119 520.662L948.754 478.504C948.94 477.549 948.865 476.571 948.535 475.644C948.205 474.717 947.629 473.865 946.849 473.154C932.308 462.882 891.604 429.819 878.142 400.341C878.142 369.311 877.571 337.853 876.11 306.823C908.305 306.02 938.404 306.341 963.74 306.823C966.28 358.985 961.518 450.149 962.216 520.662ZM708.597 663.775C695.742 661.367 682.373 661.733 669.729 664.838C657.086 667.943 645.578 673.687 636.271 681.537C635.826 670.034 633.032 598.558 632.08 576.088L704.216 574.911C704.025 585.772 707.391 653.289 708.597 663.775ZM849.186 348.606C860.807 389.106 881.635 432.387 943.23 476.418C943.23 490.863 941.261 527.403 942.404 541.313C941.134 541.313 847.662 541.848 840.804 542.33C847.909 477.939 850.707 413.262 849.186 348.606ZM727.965 349.409C732.219 414.946 740.03 480.163 751.269 543.507C735.712 543.186 662.75 541.313 652.146 541.741C652.146 532.967 649.542 482.463 649.288 477.541C689.732 442.178 717.072 397.653 727.965 349.409ZM708.915 574.804C713.487 574.804 723.583 575.714 723.012 571.915C720.158 563.55 716.262 555.462 711.391 547.787L751.904 548.268C752.857 553.19 753.746 558.112 754.635 563.034C748.666 568.384 736.601 599.414 734.95 605.032C734.823 605.405 734.803 605.799 734.891 606.18C734.98 606.561 735.174 606.919 735.458 607.225C736.982 608.83 740.982 609.044 745.237 609.044C726.758 633.708 736.791 664.203 743.84 679.236C735.052 672.745 724.759 667.863 713.614 664.898C715.074 655.108 709.74 583.792 708.978 574.804H708.915ZM741.427 632.798C742.771 624.54 745.96 616.571 750.825 609.312C780.117 610.301 809.449 610.033 838.709 608.509C842.201 620.119 874.015 650.56 834.518 696.303C823.799 697.527 813.505 700.636 804.305 705.429C795.105 710.222 787.204 716.591 781.114 724.123C758.635 695.5 735.712 667.252 741.49 632.798H741.427ZM843.598 406.921C842.646 460.849 838.709 508.09 834.01 559.771L759.27 561.429C745.173 479.2 739.141 420.35 733.87 352.779C732.41 333.626 730.949 313.778 731.457 294.357C732.283 261.027 740.347 237.273 756.857 219.457C780.225 194.366 799.148 205.547 817.69 233.314C828.339 249.342 835.661 266.784 839.344 284.888C845.059 312.173 843.916 391.353 843.662 406.921H843.598ZM870.268 698.978C861.133 696.485 851.54 695.397 841.947 695.768C852.631 683.05 858.583 667.942 859.047 652.365C859.51 636.789 854.464 621.449 844.551 608.295C848.678 608.295 859.664 608.295 858.394 605.032C856.235 598.933 850.139 586.253 845.249 576.035C842.074 569.294 838.899 563.462 838.899 561.911C839.28 559.075 840.804 546.449 840.804 546.449C846.71 547.252 874.967 546.449 884.556 546.449C876.491 567.849 877.571 565.174 875.856 568.866C874.586 571.701 873.951 573.092 874.777 574.216C875.602 575.339 878.968 575.286 887.477 575.446C887.477 606.316 890.588 642 892.176 672.763C881.888 679.417 874.265 688.565 870.332 698.978H870.268ZM891.541 575.393L963.867 575.981C961.564 605.11 961.692 634.34 964.248 663.454C953.348 659.426 941.395 657.846 929.554 658.868C917.713 659.89 906.389 663.479 896.684 669.285C895.351 637.988 894.335 605.834 891.604 575.393H891.541ZM708.026 175.641C712.407 132.359 729.298 74.4188 784.226 41.1418C837.058 71.6903 851.472 123.853 858.457 171.093C813.436 168.311 750.063 168.686 708.089 175.641H708.026ZM622.301 313.831C637.096 313.831 692.151 313.189 704.851 313.136C705.994 338.816 707.158 364.531 708.343 390.283C696.596 415.963 670.243 455.446 645.542 474.813C644.272 480.163 645.923 514.617 646.24 520.823C641.605 521.197 636.969 521.572 632.651 522.107C630.111 450.096 622.301 357.059 622.301 313.831Z" fill="#27272A"/>
<path d="M314.898 192.868C297.689 191.744 293.308 181.205 289.498 182.168C288.482 182.168 288.037 183.291 287.783 183.88C282.386 193.777 289.244 206.082 301.245 206.082C304.937 205.749 308.452 204.578 311.416 202.693C314.379 200.809 316.68 198.282 318.073 195.382C318.282 195.013 318.348 194.598 318.258 194.196C318.169 193.794 317.931 193.426 317.577 193.146C317.223 192.866 316.773 192.688 316.291 192.638C315.81 192.588 315.322 192.669 314.898 192.868ZM311.85 196.559C303.277 206.189 289.688 201.909 291.022 188.695C293.656 191.151 296.868 193.119 300.454 194.473C304.04 195.827 307.92 196.537 311.85 196.559ZM793.751 426.77C793.649 426.2 793.308 425.679 792.79 425.303C792.271 424.927 791.61 424.72 790.925 424.72C790.241 424.72 789.58 424.927 789.061 425.303C788.543 425.679 788.201 426.2 788.1 426.77C788.1 434.848 791.275 534.519 793.053 545.326C793.053 545.837 793.294 546.326 793.722 546.688C794.151 547.049 794.732 547.252 795.339 547.252C795.945 547.252 796.526 547.049 796.955 546.688C797.384 546.326 797.625 545.837 797.625 545.326C800.482 511.3 795.085 462.026 793.751 426.77ZM292.101 167.669C294.133 167.669 294.768 165.85 294.324 163.978C293.435 160.233 289.879 160.019 288.99 162.159C288.101 164.299 289.371 167.669 292.101 167.669ZM285.37 145.039C282.511 145.517 279.935 146.81 278.073 148.7C276.212 150.59 275.178 152.962 275.147 155.418C275.655 158.2 278.385 158.2 278.83 156.167C280.163 150.442 283.021 150.817 286.577 148.998C287.089 148.787 287.499 148.434 287.738 147.998C287.978 147.561 288.031 147.069 287.889 146.604C287.747 146.139 287.419 145.729 286.96 145.444C286.501 145.158 285.94 145.015 285.37 145.039ZM933.959 647.939C933.959 648.955 936.309 648.634 936.563 647.618C937.579 643.98 932.88 602.517 933.642 591.282C933.642 589.838 931.102 589.891 930.975 591.282C929.802 610.205 930.801 629.178 933.959 647.939ZM787.909 691.434C789.179 692.237 791.148 690.953 790.322 689.776C787.909 686.191 784.48 683.409 780.861 677.899C775.305 669.166 772.101 659.51 771.475 649.616C770.85 639.723 772.818 629.834 777.241 620.654C777.94 619.316 775.4 618.514 774.638 619.905C769.24 630.343 767.045 641.758 768.254 653.098C769.464 664.438 774.039 675.34 781.559 684.8C783.257 687.274 785.399 689.512 787.909 691.434Z" fill="#27272A"/>
</svg>
