<svg width="115" height="36" viewBox="0 0 115 36" fill="none" xmlns="http://www.w3.org/2000/svg">
<path d="M18 0C16.5964 0 15.2303 0.160642 13.9197 0.465194C7.25502 2.00937 2.00937 7.25502 0.465194 13.919C0.160642 15.2303 0 16.5964 0 18C0 27.9411 8.0589 36 18 36C19.4036 36 20.7697 35.8394 22.081 35.5348C28.745 33.9906 33.9906 28.7456 35.5355 22.0823C35.84 20.7711 36.0007 19.4043 36.0007 18C36.0007 8.0589 27.9411 0 18 0ZM18 29.2724C16.6714 29.2724 15.3969 29.0428 14.2135 28.6205C11.0341 27.4866 8.51406 24.9665 7.38019 21.7871C6.95783 20.6037 6.72825 19.3286 6.72825 18C6.72825 11.7744 11.7744 6.72758 18 6.72758C19.3286 6.72758 20.6031 6.95716 21.7865 7.37952C24.9659 8.51339 27.4866 11.0335 28.6205 14.2129C29.0428 15.3963 29.2724 16.6714 29.2724 18C29.2724 24.2256 24.2256 29.2724 18 29.2724Z" fill="url(#paint0_linear_4004_206)"/>
<path d="M18 10.7349C13.988 10.7349 10.735 13.9879 10.735 18C10.735 22.012 13.988 25.265 18 25.265C22.0121 25.265 25.2651 22.012 25.2651 18C25.2651 13.9879 22.0128 10.7349 18 10.7349ZM18 22.3929C15.5743 22.3929 13.6071 20.4264 13.6071 18C13.6071 15.5736 15.5743 13.6071 18 13.6071C20.4257 13.6071 22.393 15.5736 22.393 18C22.393 20.4264 20.4264 22.3929 18 22.3929Z" fill="#FEFCFE"/>
<path d="M21.7865 7.37953C20.6031 6.95718 19.3287 6.72759 18 6.72759C11.7744 6.72759 6.72826 11.7744 6.72826 18C6.72826 19.3287 6.95785 20.6038 7.3802 21.7872C5.94178 21.2437 4.59305 20.3929 3.43509 19.235C1.91568 17.7155 0.925719 15.8675 0.46521 13.919C2.00939 7.25504 7.25504 2.00939 13.9197 0.46521C15.8675 0.925719 17.7155 1.91568 19.235 3.43509C20.3923 4.59239 21.243 5.94111 21.7865 7.37953Z" fill="url(#paint1_linear_4004_206)"/>
<path d="M35.5355 22.0824C33.9906 28.7457 28.745 33.9907 22.081 35.5348C20.1332 35.0743 18.2851 34.0844 16.7657 32.565C15.6077 31.407 14.757 30.0583 14.2135 28.6205C15.3969 29.0429 16.6713 29.2725 18 29.2725C24.2256 29.2725 29.2724 24.2256 29.2724 18C29.2724 16.6714 29.0428 15.3963 28.6205 14.2129C30.0582 14.7564 31.4069 15.6071 32.5649 16.7651C34.0843 18.2845 35.0749 20.1339 35.5355 22.0824Z" fill="url(#paint2_linear_4004_206)"/>
<path d="M9.09641 30.6713C11.1769 30.6713 12.8635 28.9848 12.8635 26.9043C12.8635 24.8238 11.1769 23.1372 9.09641 23.1372C7.01592 23.1372 5.32935 24.8238 5.32935 26.9043C5.32935 28.9848 7.01592 30.6713 9.09641 30.6713Z" fill="url(#paint3_linear_4004_206)"/>
<path d="M26.9371 12.8306C29.0176 12.8306 30.7042 11.1441 30.7042 9.06358C30.7042 6.98308 29.0176 5.29651 26.9371 5.29651C24.8566 5.29651 23.17 6.98308 23.17 9.06358C23.17 11.1441 24.8566 12.8306 26.9371 12.8306Z" fill="url(#paint4_linear_4004_206)"/>
<path d="M114.76 14.6086V16.5973H108.489V14.6086H114.76ZM110.037 11.995H112.608V22.2365C112.608 22.5821 112.66 22.8473 112.765 23.0319C112.873 23.2119 113.016 23.335 113.191 23.4012C113.366 23.4675 113.56 23.5007 113.773 23.5007C113.934 23.5007 114.081 23.4888 114.213 23.4652C114.351 23.4415 114.455 23.4202 114.526 23.4012L114.959 25.4112C114.822 25.4585 114.625 25.5106 114.37 25.5674C114.119 25.6243 113.811 25.6574 113.446 25.6669C112.802 25.6858 112.222 25.5887 111.706 25.3757C111.19 25.1579 110.781 24.8217 110.478 24.3672C110.179 23.9126 110.033 23.3444 110.037 22.6626V11.995Z" fill="#D4D4D8"/>
<path d="M104.098 25.5177V14.6087H106.669V25.5177H104.098ZM105.391 13.0604C104.983 13.0604 104.633 12.9254 104.34 12.6555C104.046 12.3809 103.899 12.0518 103.899 11.6683C103.899 11.2801 104.046 10.951 104.34 10.6811C104.633 10.4065 104.983 10.2692 105.391 10.2692C105.803 10.2692 106.153 10.4065 106.442 10.6811C106.735 10.951 106.882 11.2801 106.882 11.6683C106.882 12.0518 106.735 12.3809 106.442 12.6555C106.153 12.9254 105.803 13.0604 105.391 13.0604Z" fill="#D4D4D8"/>
<path d="M91.614 25.5177V10.9723H94.185V16.4126H94.2916C94.4241 16.1475 94.6112 15.8658 94.8526 15.5675C95.0941 15.2644 95.4208 15.0064 95.8328 14.7933C96.2447 14.5755 96.7703 14.4666 97.4095 14.4666C98.2523 14.4666 99.0122 14.682 99.6893 15.1129C100.371 15.5391 100.911 16.1712 101.309 17.0092C101.711 17.8426 101.912 18.8653 101.912 20.0774C101.912 21.2753 101.716 22.2933 101.323 23.1314C100.93 23.9694 100.395 24.6087 99.7177 25.049C99.0406 25.4893 98.2736 25.7095 97.4166 25.7095C96.7916 25.7095 96.2731 25.6053 95.8612 25.397C95.4492 25.1887 95.1178 24.9377 94.8669 24.6442C94.6206 24.3459 94.4289 24.0641 94.2916 23.799H94.1424V25.5177H91.614ZM94.1353 20.0632C94.1353 20.7687 94.2348 21.3866 94.4336 21.9169C94.6372 22.4472 94.9284 22.8615 95.3072 23.1598C95.6907 23.4534 96.1547 23.6001 96.6992 23.6001C97.2674 23.6001 97.7433 23.4486 98.1268 23.1456C98.5103 22.8378 98.7991 22.4188 98.9933 21.8885C99.1921 21.3534 99.2916 20.745 99.2916 20.0632C99.2916 19.3861 99.1945 18.7848 99.0004 18.2592C98.8062 17.7337 98.5174 17.3217 98.1339 17.0234C97.7504 16.7251 97.2722 16.576 96.6992 16.576C96.15 16.576 95.6836 16.7204 95.3001 17.0092C94.9166 17.298 94.6254 17.7029 94.4265 18.2237C94.2324 18.7445 94.1353 19.3577 94.1353 20.0632Z" fill="#D4D4D8"/>
<path d="M83.5707 25.5177V14.6086H86.0636V16.4268H86.1772C86.3761 15.7971 86.717 15.3118 87.1999 14.9709C87.6876 14.6252 88.244 14.4524 88.869 14.4524C89.011 14.4524 89.1696 14.4595 89.3448 14.4737C89.5247 14.4832 89.6739 14.4997 89.7923 14.5234V16.8885C89.6834 16.8506 89.5105 16.8174 89.2738 16.789C89.0418 16.7559 88.8169 16.7393 88.5991 16.7393C88.1303 16.7393 87.7089 16.8411 87.3349 17.0447C86.9656 17.2436 86.6744 17.5206 86.4613 17.8757C86.2482 18.2308 86.1417 18.6404 86.1417 19.1044V25.5177H83.5707Z" fill="#D4D4D8"/>
<path d="M76.1612 25.7308C75.0959 25.7308 74.1726 25.4964 73.3913 25.0277C72.6101 24.5589 72.004 23.9032 71.5732 23.0604C71.147 22.2176 70.934 21.2327 70.934 20.1058C70.934 18.9789 71.147 17.9917 71.5732 17.1442C72.004 16.2966 72.6101 15.6385 73.3913 15.1697C74.1726 14.701 75.0959 14.4666 76.1612 14.4666C77.2266 14.4666 78.1499 14.701 78.9311 15.1697C79.7124 15.6385 80.3161 16.2966 80.7422 17.1442C81.1731 17.9917 81.3885 18.9789 81.3885 20.1058C81.3885 21.2327 81.1731 22.2176 80.7422 23.0604C80.3161 23.9032 79.7124 24.5589 78.9311 25.0277C78.1499 25.4964 77.2266 25.7308 76.1612 25.7308ZM76.1754 23.6712C76.7531 23.6712 77.236 23.5125 77.6243 23.1953C78.0126 22.8733 78.3014 22.4425 78.4908 21.9027C78.6849 21.3629 78.782 20.7616 78.782 20.0987C78.782 19.4311 78.6849 18.8274 78.4908 18.2876C78.3014 17.7431 78.0126 17.3099 77.6243 16.9879C77.236 16.666 76.7531 16.505 76.1754 16.505C75.5836 16.505 75.0912 16.666 74.6982 16.9879C74.3099 17.3099 74.0187 17.7431 73.8246 18.2876C73.6352 18.8274 73.5405 19.4311 73.5405 20.0987C73.5405 20.7616 73.6352 21.3629 73.8246 21.9027C74.0187 22.4425 74.3099 22.8733 74.6982 23.1953C75.0912 23.5125 75.5836 23.6712 76.1754 23.6712Z" fill="#D4D4D8"/>
<path d="M67.1858 25.674C66.7549 25.674 66.3856 25.5225 66.0778 25.2194C65.7701 24.9164 65.6185 24.5471 65.6233 24.1115C65.6185 23.6853 65.7701 23.3207 66.0778 23.0177C66.3856 22.7147 66.7549 22.5632 67.1858 22.5632C67.6024 22.5632 67.9647 22.7147 68.2724 23.0177C68.5849 23.3207 68.7435 23.6853 68.7483 24.1115C68.7435 24.4003 68.6678 24.6631 68.521 24.8998C68.379 25.1366 68.1896 25.326 67.9528 25.468C67.7208 25.6053 67.4651 25.674 67.1858 25.674Z" fill="#D4D4D8"/>
<path d="M55.9855 19.1257V25.5177H53.4144V14.6087H55.8718V16.4624H55.9997C56.2506 15.8516 56.6507 15.3662 57.1999 15.0064C57.7539 14.6465 58.4381 14.4666 59.2525 14.4666C60.0053 14.4666 60.6611 14.6276 61.2198 14.9496C61.7833 15.2715 62.2189 15.7379 62.5266 16.3487C62.8391 16.9595 62.993 17.7005 62.9883 18.5717V25.5177H60.4173V18.9695C60.4173 18.2403 60.2279 17.6697 59.8491 17.2578C59.475 16.8459 58.9566 16.6399 58.2937 16.6399C57.8439 16.6399 57.4438 16.7393 57.0934 16.9382C56.7478 17.1323 56.4755 17.4141 56.2766 17.7834C56.0825 18.1527 55.9855 18.6001 55.9855 19.1257Z" fill="#D4D4D8"/>
<path d="M48.1996 25.5177V14.6087H50.7706V25.5177H48.1996ZM49.4922 13.0604C49.085 13.0604 48.7346 12.9254 48.4411 12.6555C48.1475 12.3809 48.0007 12.0518 48.0007 11.6683C48.0007 11.2801 48.1475 10.951 48.4411 10.6811C48.7346 10.4065 49.085 10.2692 49.4922 10.2692C49.9041 10.2692 50.2545 10.4065 50.5433 10.6811C50.8369 10.951 50.9837 11.2801 50.9837 11.6683C50.9837 12.0518 50.8369 12.3809 50.5433 12.6555C50.2545 12.9254 49.9041 13.0604 49.4922 13.0604Z" fill="#D4D4D8"/>
<defs>
<linearGradient id="paint0_linear_4004_206" x1="30.5556" y1="6.13588" x2="5.83534" y2="29.4953" gradientUnits="userSpaceOnUse">
<stop stop-color="#F38856"/>
<stop offset="0.23" stop-color="#F0625C"/>
<stop offset="1" stop-color="#5C3DAB"/>
</linearGradient>
<linearGradient id="paint1_linear_4004_206" x1="16.8608" y1="3.05156" x2="2.79988" y2="17.0368" gradientUnits="userSpaceOnUse">
<stop stop-color="#F67986"/>
<stop offset="1" stop-color="#8951BA"/>
</linearGradient>
<linearGradient id="paint2_linear_4004_206" x1="32.9424" y1="19.2196" x2="18.8815" y2="33.2055" gradientUnits="userSpaceOnUse">
<stop stop-color="#F67986"/>
<stop offset="1" stop-color="#8951BA"/>
</linearGradient>
<linearGradient id="paint3_linear_4004_206" x1="11.8467" y1="24.3306" x2="6.34541" y2="29.4779" gradientUnits="userSpaceOnUse">
<stop stop-color="#A267B9"/>
<stop offset="1" stop-color="#704BB4"/>
</linearGradient>
<linearGradient id="paint4_linear_4004_206" x1="29.2269" y1="6.92034" x2="25.4712" y2="10.4351" gradientUnits="userSpaceOnUse">
<stop stop-color="#F7A8A5"/>
<stop offset="0.97" stop-color="#D074C4"/>
<stop offset="1" stop-color="#CF76A9"/>
</linearGradient>
</defs>
</svg>
